<svg width="204" height="39" viewBox="0 0 204 39" fill="none" xmlns="http://www.w3.org/2000/svg">
<g filter="url(#filter0_d_376_647)">
<path d="M27.24 5.1H18.26V30H13.6V5.1H4.6V1.2H27.24V5.1ZM34.3966 12.02C35.2366 11.1933 36.1566 10.5333 37.1566 10.04C38.1566 9.53333 39.3232 9.28 40.6566 9.28C41.7766 9.28 42.7566 9.46667 43.5966 9.84C44.4499 10.2133 45.1632 10.74 45.7366 11.42C46.3232 12.1 46.7632 12.92 47.0566 13.88C47.3499 14.8267 47.4966 15.8733 47.4966 17.02V30H43.2166V17.02C43.2166 15.6467 42.8966 14.58 42.2566 13.82C41.6299 13.06 40.6699 12.68 39.3766 12.68C38.4166 12.68 37.5232 12.9 36.6966 13.34C35.8832 13.78 35.1166 14.38 34.3966 15.14V30H30.0966V0.4H34.3966V12.02ZM65.8984 17.5C65.8984 16.78 65.7918 16.1133 65.5784 15.5C65.3784 14.8733 65.0784 14.3333 64.6784 13.88C64.2784 13.4133 63.7784 13.0533 63.1784 12.8C62.5918 12.5333 61.9118 12.4 61.1384 12.4C59.5784 12.4 58.3518 12.8467 57.4584 13.74C56.5651 14.6333 55.9984 15.8867 55.7584 17.5H65.8984ZM55.6384 20.14C55.6918 21.3 55.8718 22.3067 56.1784 23.16C56.4851 24 56.8918 24.7 57.3984 25.26C57.9184 25.82 58.5318 26.24 59.2384 26.52C59.9584 26.7867 60.7584 26.92 61.6384 26.92C62.4784 26.92 63.2051 26.8267 63.8184 26.64C64.4318 26.44 64.9651 26.2267 65.4184 26C65.8718 25.76 66.2584 25.5467 66.5784 25.36C66.8984 25.16 67.1918 25.06 67.4584 25.06C67.8051 25.06 68.0718 25.1933 68.2584 25.46L69.4784 27.04C68.9718 27.64 68.3984 28.1467 67.7584 28.56C67.1184 28.9733 66.4384 29.3133 65.7184 29.58C64.9984 29.8333 64.2584 30.0133 63.4984 30.12C62.7384 30.24 61.9984 30.3 61.2784 30.3C59.8651 30.3 58.5518 30.0667 57.3384 29.6C56.1384 29.12 55.0918 28.42 54.1984 27.5C53.3184 26.58 52.6251 25.44 52.1184 24.08C51.6251 22.72 51.3784 21.1533 51.3784 19.38C51.3784 17.9667 51.5984 16.6467 52.0384 15.42C52.4918 14.1933 53.1318 13.1267 53.9584 12.22C54.7984 11.3133 55.8118 10.6 56.9984 10.08C58.1984 9.54667 59.5518 9.28 61.0584 9.28C62.3118 9.28 63.4718 9.48667 64.5384 9.9C65.6051 10.3 66.5251 10.8933 67.2984 11.68C68.0718 12.4667 68.6718 13.4333 69.0984 14.58C69.5384 15.7133 69.7584 17.0067 69.7584 18.46C69.7584 19.1267 69.6851 19.5733 69.5384 19.8C69.3918 20.0267 69.1251 20.14 68.7384 20.14H55.6384Z" fill="#867070"/>
<path d="M99.3016 15.6C99.3016 17.7333 98.9549 19.6867 98.2616 21.46C97.5682 23.22 96.5882 24.7333 95.3216 26C94.0682 27.2667 92.5549 28.2533 90.7816 28.96C89.0216 29.6533 87.0616 30 84.9016 30H74.0216V1.2H84.9016C87.0616 1.2 89.0216 1.55333 90.7816 2.26C92.5549 2.95333 94.0682 3.93333 95.3216 5.2C96.5882 6.46667 97.5682 7.98666 98.2616 9.76C98.9549 11.52 99.3016 13.4667 99.3016 15.6ZM94.5216 15.6C94.5216 13.9467 94.2949 12.46 93.8416 11.14C93.4016 9.82 92.7616 8.70667 91.9216 7.8C91.0949 6.89333 90.0882 6.2 88.9016 5.72C87.7149 5.22667 86.3816 4.98 84.9016 4.98H78.7216V26.22H84.9016C86.3816 26.22 87.7149 25.98 88.9016 25.5C90.0882 25.02 91.0949 24.3267 91.9216 23.42C92.7616 22.5 93.4016 21.3867 93.8416 20.08C94.2949 18.76 94.5216 17.2667 94.5216 15.6ZM112.198 9.28C113.704 9.28 115.064 9.52667 116.278 10.02C117.504 10.5133 118.544 11.2133 119.398 12.12C120.264 13.0267 120.931 14.1267 121.398 15.42C121.864 16.7133 122.098 18.1667 122.098 19.78C122.098 21.3933 121.864 22.8467 121.398 24.14C120.931 25.4333 120.264 26.54 119.398 27.46C118.544 28.3667 117.504 29.0667 116.278 29.56C115.064 30.0533 113.704 30.3 112.198 30.3C110.678 30.3 109.304 30.0533 108.078 29.56C106.864 29.0667 105.824 28.3667 104.958 27.46C104.091 26.54 103.424 25.4333 102.958 24.14C102.491 22.8467 102.258 21.3933 102.258 19.78C102.258 18.1667 102.491 16.7133 102.958 15.42C103.424 14.1267 104.091 13.0267 104.958 12.12C105.824 11.2133 106.864 10.5133 108.078 10.02C109.304 9.52667 110.678 9.28 112.198 9.28ZM112.198 26.94C114.038 26.94 115.404 26.3267 116.298 25.1C117.204 23.86 117.658 22.0933 117.658 19.8C117.658 17.5067 117.204 15.74 116.298 14.5C115.404 13.2467 114.038 12.62 112.198 12.62C110.331 12.62 108.944 13.2467 108.038 14.5C107.131 15.74 106.678 17.5067 106.678 19.8C106.678 22.0933 107.131 23.86 108.038 25.1C108.944 26.3267 110.331 26.94 112.198 26.94ZM130.249 12.3C130.689 11.8467 131.143 11.44 131.609 11.08C132.089 10.7067 132.596 10.3867 133.129 10.12C133.663 9.85333 134.229 9.64667 134.829 9.5C135.429 9.35333 136.083 9.28 136.789 9.28C137.909 9.28 138.889 9.46667 139.729 9.84C140.583 10.2133 141.296 10.74 141.869 11.42C142.456 12.1 142.896 12.92 143.189 13.88C143.483 14.8267 143.629 15.8733 143.629 17.02V30H139.349V17.02C139.349 15.6467 139.029 14.58 138.389 13.82C137.763 13.06 136.803 12.68 135.509 12.68C134.549 12.68 133.656 12.9 132.829 13.34C132.016 13.78 131.249 14.38 130.529 15.14V30H126.229V9.6H128.829C129.416 9.6 129.789 9.87333 129.949 10.42L130.249 12.3ZM165.851 9.6V30H163.251C162.678 30 162.311 29.7267 162.151 29.18L161.831 27.28C161.405 27.7333 160.951 28.1467 160.471 28.52C160.005 28.8933 159.505 29.2133 158.971 29.48C158.438 29.7467 157.865 29.9533 157.251 30.1C156.651 30.2467 156.005 30.32 155.311 30.32C154.191 30.32 153.205 30.1333 152.351 29.76C151.498 29.3867 150.778 28.86 150.191 28.18C149.618 27.5 149.185 26.6867 148.891 25.74C148.598 24.78 148.451 23.7267 148.451 22.58V9.6H152.751V22.58C152.751 23.9533 153.065 25.02 153.691 25.78C154.331 26.54 155.298 26.92 156.591 26.92C157.538 26.92 158.418 26.7067 159.231 26.28C160.058 25.84 160.831 25.24 161.551 24.48V9.6H165.851ZM177.613 30.32C175.92 30.32 174.613 29.8467 173.693 28.9C172.786 27.94 172.333 26.5933 172.333 24.86V12.98H170.093C169.853 12.98 169.646 12.9067 169.473 12.76C169.3 12.6 169.213 12.3667 169.213 12.06V10.32L172.513 9.84L173.453 3.94C173.52 3.71333 173.633 3.53333 173.793 3.4C173.953 3.25333 174.166 3.18 174.433 3.18H176.633V9.88H182.293V12.98H176.633V24.56C176.633 25.2933 176.813 25.8533 177.173 26.24C177.533 26.6267 178.013 26.82 178.613 26.82C178.946 26.82 179.233 26.78 179.473 26.7C179.713 26.6067 179.92 26.5133 180.093 26.42C180.266 26.3133 180.413 26.22 180.533 26.14C180.666 26.0467 180.793 26 180.913 26C181.153 26 181.346 26.1333 181.493 26.4L182.773 28.5C182.106 29.0867 181.32 29.54 180.413 29.86C179.506 30.1667 178.573 30.32 177.613 30.32ZM197.863 13.3C197.756 13.4867 197.636 13.62 197.503 13.7C197.369 13.78 197.203 13.82 197.003 13.82C196.776 13.82 196.529 13.7533 196.263 13.62C195.996 13.4733 195.683 13.3133 195.323 13.14C194.963 12.9667 194.536 12.8133 194.043 12.68C193.563 12.5333 192.996 12.46 192.343 12.46C191.809 12.46 191.323 12.5267 190.883 12.66C190.456 12.78 190.089 12.96 189.783 13.2C189.489 13.4267 189.263 13.7 189.103 14.02C188.943 14.3267 188.863 14.66 188.863 15.02C188.863 15.5 189.009 15.9 189.303 16.22C189.596 16.54 189.983 16.82 190.463 17.06C190.943 17.2867 191.489 17.4933 192.103 17.68C192.716 17.8667 193.343 18.0667 193.983 18.28C194.623 18.4933 195.249 18.74 195.863 19.02C196.476 19.3 197.023 19.6467 197.503 20.06C197.983 20.46 198.369 20.9533 198.663 21.54C198.956 22.1133 199.103 22.8133 199.103 23.64C199.103 24.6 198.929 25.4867 198.583 26.3C198.236 27.1133 197.729 27.82 197.063 28.42C196.396 29.02 195.563 29.4867 194.563 29.82C193.576 30.1533 192.443 30.32 191.163 30.32C190.456 30.32 189.769 30.2533 189.103 30.12C188.449 30 187.823 29.8333 187.223 29.62C186.636 29.3933 186.083 29.1267 185.562 28.82C185.056 28.5133 184.603 28.18 184.203 27.82L185.203 26.18C185.323 25.98 185.469 25.8267 185.643 25.72C185.829 25.6 186.056 25.54 186.323 25.54C186.603 25.54 186.876 25.6333 187.143 25.82C187.423 25.9933 187.743 26.1867 188.103 26.4C188.476 26.6133 188.923 26.8133 189.443 27C189.963 27.1733 190.609 27.26 191.383 27.26C192.023 27.26 192.576 27.1867 193.043 27.04C193.509 26.88 193.896 26.6667 194.203 26.4C194.509 26.1333 194.736 25.8333 194.883 25.5C195.029 25.1533 195.103 24.7867 195.103 24.4C195.103 23.88 194.956 23.4533 194.663 23.12C194.369 22.7867 193.976 22.5 193.483 22.26C193.003 22.02 192.449 21.8067 191.823 21.62C191.209 21.4333 190.583 21.2333 189.943 21.02C189.303 20.8067 188.669 20.56 188.043 20.28C187.429 20 186.876 19.6467 186.383 19.22C185.903 18.78 185.516 18.2533 185.223 17.64C184.929 17.0133 184.783 16.2533 184.783 15.36C184.783 14.5467 184.943 13.7733 185.263 13.04C185.596 12.3067 186.076 11.66 186.703 11.1C187.343 10.54 188.123 10.1 189.043 9.78C189.976 9.44667 191.049 9.28 192.263 9.28C193.636 9.28 194.883 9.5 196.003 9.94C197.123 10.38 198.063 10.98 198.823 11.74L197.863 13.3Z" fill="#F5EBEB"/>
</g>
<defs>
<filter id="filter0_d_376_647" x="0.599609" y="0.400391" width="202.502" height="37.9199" filterUnits="userSpaceOnUse" color-interpolation-filters="sRGB">
<feFlood flood-opacity="0" result="BackgroundImageFix"/>
<feColorMatrix in="SourceAlpha" type="matrix" values="0 0 0 0 0 0 0 0 0 0 0 0 0 0 0 0 0 0 127 0" result="hardAlpha"/>
<feOffset dy="4"/>
<feGaussianBlur stdDeviation="2"/>
<feComposite in2="hardAlpha" operator="out"/>
<feColorMatrix type="matrix" values="0 0 0 0 0 0 0 0 0 0 0 0 0 0 0 0 0 0 0.25 0"/>
<feBlend mode="normal" in2="BackgroundImageFix" result="effect1_dropShadow_376_647"/>
<feBlend mode="normal" in="SourceGraphic" in2="effect1_dropShadow_376_647" result="shape"/>
</filter>
</defs>
</svg>